<svg width="1024" height="685" viewBox="0 0 1024 685" fill="none" xmlns="http://www.w3.org/2000/svg">
  <defs>
    <linearGradient id="surfaceA" x1="44" y1="60" x2="910" y2="581" gradientUnits="userSpaceOnUse">
      <stop stop-color="#3E7FDE"/>
      <stop offset="1" stop-color="#68ADEB"/>
    </linearGradient>
  </defs>

  <rect width="1024" height="685" fill="#E5E7EB"/>
  <rect x="44" y="60" width="866" height="521" rx="28" fill="url(#surfaceA)"/>

  <rect x="90" y="142" width="554" height="199" rx="20" fill="#F3F4F6"/>
  <text x="118" y="219" fill="#8291AA" font-size="34" letter-spacing="2" font-family="Arial, Helvetica, sans-serif" font-weight="700">
    AI AGENT
  </text>
  <rect x="118" y="238" width="458" height="18" rx="9" fill="#E1E5EC"/>
  <rect x="118" y="267" width="418" height="18" rx="9" fill="#E1E5EC"/>
  <rect x="118" y="296" width="388" height="18" rx="9" fill="#E1E5EC"/>

  <rect x="260" y="374" width="600" height="199" rx="20" fill="#F3F4F6"/>
  <text x="288" y="451" fill="#8291AA" font-size="38" letter-spacing="2" font-family="Arial, Helvetica, sans-serif" font-weight="700">
    LINKEDIN POST GENERATED
  </text>
  <rect x="288" y="470" width="518" height="18" rx="9" fill="#E1E5EC"/>
  <rect x="288" y="499" width="490" height="18" rx="9" fill="#E1E5EC"/>
  <rect x="288" y="528" width="435" height="18" rx="9" fill="#E1E5EC"/>
  <rect x="288" y="557" width="396" height="18" rx="9" fill="#E1E5EC"/>
</svg>
